<svg xmlns="http://www.w3.org/2000/svg" viewBox="0 0 1000 1000">
  <circle cx="500" cy="500" r="500" fill="#DE2910"/>
  <polygon points="200,200 240,340 390,340 270,430 310,570 200,480 90,570 130,430 10,340 160,340" fill="#FFDE00"/>
  <polygon points="420,180 430,210 465,210 435,230 445,260 420,240 395,260 405,230 375,210 410,210" fill="#FFDE00"/>
  <polygon points="480,270 490,300 525,300 495,320 505,350 480,330 455,350 465,320 435,300 470,300" fill="#FFDE00"/>
  <polygon points="480,390 490,420 525,420 495,440 505,470 480,450 455,470 465,440 435,420 470,420" fill="#FFDE00"/>
  <polygon points="420,480 430,510 465,510 435,530 445,560 420,540 395,560 405,530 375,510 410,510" fill="#FFDE00"/>
</svg>
